<?xml version="1.0" encoding="utf-8"?>
<!-- Generator: Adobe Illustrator 21.0.2, SVG Export Plug-In . SVG Version: 6.00 Build 0)  -->
<svg version="1.1" id="Laag_1" xmlns="http://www.w3.org/2000/svg" xmlns:xlink="http://www.w3.org/1999/xlink" x="0px" y="0px"
	 viewBox="0 0 173.8 48.2" style="enable-background:new 0 0 173.8 48.2;" xml:space="preserve">
<style type="text/css">
	.st0{fill:#2D9FDC;}
</style>
<path d="M17.2,31.5"/>
<path class="st0" d="M112.1,8.5c0-0.6,0.2-1.1,0.5-1.4s0.7-0.5,1.2-0.5s0.8,0.2,1.2,0.5c0.3,0.3,0.5,0.8,0.5,1.4s-0.2,1.1-0.5,1.4
	c-0.3,0.3-0.7,0.5-1.2,0.5s-0.9-0.2-1.2-0.5C112.3,9.6,112.1,9.1,112.1,8.5z"/>
<g>
	<path d="M35.6,46.7c-11.6,0-21.2-8.8-22.5-20l0,0c-0.4,0.5-0.9,0.9-1.3,1.4c1.9,11.4,11.8,20.1,23.8,20.1c8.2,0,15.4-4.1,19.7-10.3
		c-0.4-0.4-0.7-0.8-1-1.2C50.3,42.7,43.4,46.7,35.6,46.7z"/>
	<path d="M35.6,1.5c12.5,0,22.6,10.1,22.6,22.6c0,1.3-0.1,2.5-0.3,3.7c0.1,0.4,0.3,0.8,0.4,1.2c0.2,0.5,0.4,1.1,0.5,1.6
		c0.6-2,0.9-4.2,0.9-6.4C59.7,10.8,48.9,0,35.6,0c-6.7,0-12.8,2.7-17.1,7.2c1.1-0.5,2.3-0.8,3.3-0.9C25.6,3.3,30.4,1.5,35.6,1.5z"/>
</g>
<path class="st0" d="M85.9,41.4l-0.4-1.1H84l-0.4,1.1H83l1.5-3.9h0.7l1.5,3.9H85.9z M85.3,39.8L85,38.7c0-0.1-0.1-0.2-0.1-0.3
	c0-0.2-0.1-0.3-0.1-0.3c0,0.2-0.1,0.5-0.2,0.7l-0.4,1C84.2,39.8,85.3,39.8,85.3,39.8z"/>
<path class="st0" d="M89.8,38c-0.4,0-0.7,0.1-0.9,0.4c-0.2,0.3-0.3,0.6-0.3,1.1s0.1,0.8,0.3,1.1c0.2,0.2,0.5,0.4,0.9,0.4
	c0.2,0,0.3,0,0.5,0s0.3-0.1,0.5-0.1v0.5c-0.3,0.1-0.7,0.2-1,0.2c-0.6,0-1-0.2-1.3-0.5S88,40.3,88,39.6c0-0.4,0.1-0.8,0.2-1.1
	s0.4-0.5,0.6-0.7c0.3-0.2,0.6-0.2,1-0.2s0.8,0.1,1.1,0.2l-0.2,0.5c-0.1-0.1-0.3-0.1-0.4-0.2C90.1,38,90,38,89.8,38z"/>
<path class="st0" d="M94.4,38c-0.4,0-0.7,0.1-0.9,0.4c-0.2,0.3-0.3,0.6-0.3,1.1s0.1,0.8,0.3,1.1c0.2,0.2,0.5,0.4,0.9,0.4
	c0.2,0,0.3,0,0.5,0s0.3-0.1,0.5-0.1v0.5c-0.3,0.1-0.7,0.2-1,0.2c-0.6,0-1-0.2-1.3-0.5s-0.5-0.8-0.5-1.5c0-0.4,0.1-0.8,0.2-1.1
	s0.4-0.5,0.6-0.7c0.3-0.2,0.6-0.2,1-0.2s0.8,0.1,1.1,0.2l-0.2,0.5c-0.1-0.1-0.3-0.1-0.4-0.2C94.7,38,94.5,38,94.4,38z"/>
<path class="st0" d="M100.7,39.4c0,0.6-0.2,1.1-0.5,1.5s-0.8,0.5-1.3,0.5c-0.6,0-1-0.2-1.4-0.5c-0.3-0.3-0.5-0.8-0.5-1.5
	c0-0.6,0.2-1.1,0.5-1.5c0.3-0.3,0.8-0.5,1.4-0.5s1,0.2,1.3,0.5C100.6,38.3,100.7,38.8,100.7,39.4z M97.7,39.4c0,0.5,0.1,0.8,0.3,1.1
	c0.2,0.2,0.5,0.4,0.9,0.4s0.7-0.1,0.9-0.4c0.2-0.2,0.3-0.6,0.3-1.1s-0.1-0.8-0.3-1.1c-0.2-0.2-0.5-0.4-0.9-0.4S98.2,38,98,38.3
	C97.8,38.6,97.7,39,97.7,39.4z"/>
<path class="st0" d="M105.7,37.5V40c0,0.3-0.1,0.5-0.2,0.8c-0.1,0.2-0.3,0.4-0.5,0.5s-0.5,0.2-0.8,0.2c-0.5,0-0.9-0.1-1.1-0.4
	c-0.3-0.3-0.4-0.6-0.4-1.1v-2.5h0.6V40c0,0.3,0.1,0.6,0.2,0.7c0.1,0.2,0.4,0.2,0.7,0.2c0.6,0,0.9-0.3,0.9-0.9v-2.5H105.7z"/>
<path class="st0" d="M111,41.4h-0.8l-1.9-3.1l0,0v0.2c0,0.3,0,0.6,0,0.9v2h-0.6v-3.9h0.8l1.9,3.1l0,0c0,0,0-0.2,0-0.4
	c0-0.3,0-0.5,0-0.6v-2h0.6V41.4z"/>
<path class="st0" d="M114.5,41.4h-0.6v-3.3h-1.1v-0.5h2.9v0.5h-1.1v3.3H114.5z"/>
<path class="st0" d="M117.3,41.4v-3.9h0.6v3.9H117.3z"/>
<path class="st0" d="M123.3,41.4h-0.8l-1.9-3.1l0,0v0.2c0,0.3,0,0.6,0,0.9v2H120v-3.9h0.8l1.9,3.1l0,0c0,0,0-0.2,0-0.4
	c0-0.3,0-0.5,0-0.6v-2h0.6V41.4z"/>
<path class="st0" d="M127,39.3h1.4v2c-0.2,0.1-0.5,0.1-0.7,0.2c-0.2,0-0.4,0-0.7,0c-0.6,0-1-0.2-1.4-0.5c-0.3-0.3-0.5-0.8-0.5-1.5
	c0-0.6,0.2-1.1,0.5-1.5c0.4-0.4,0.9-0.5,1.5-0.5c0.4,0,0.8,0.1,1.2,0.2l-0.2,0.5c-0.3-0.1-0.6-0.2-0.9-0.2c-0.4,0-0.7,0.1-1,0.4
	c-0.2,0.3-0.4,0.6-0.4,1.1s0.1,0.8,0.3,1.1c0.2,0.2,0.5,0.4,0.9,0.4c0.2,0,0.4,0,0.7-0.1v-1H127V39.3z"/>
<path class="st0" d="M134.6,38c-0.4,0-0.7,0.1-0.9,0.4c-0.2,0.3-0.3,0.6-0.3,1.1s0.1,0.8,0.3,1.1c0.2,0.2,0.5,0.4,0.9,0.4
	c0.2,0,0.3,0,0.5,0s0.3-0.1,0.5-0.1v0.5c-0.3,0.1-0.7,0.2-1,0.2c-0.6,0-1-0.2-1.3-0.5s-0.5-0.8-0.5-1.5c0-0.4,0.1-0.8,0.2-1.1
	c0.1-0.3,0.4-0.5,0.6-0.7c0.3-0.2,0.6-0.2,1-0.2s0.8,0.1,1.1,0.2l-0.2,0.5c-0.1-0.1-0.3-0.1-0.4-0.2C135,38,134.8,38,134.6,38z"/>
<path class="st0" d="M141,39.4c0,0.6-0.2,1.1-0.5,1.5s-0.8,0.5-1.3,0.5c-0.6,0-1-0.2-1.4-0.5c-0.3-0.3-0.5-0.8-0.5-1.5
	c0-0.6,0.2-1.1,0.5-1.5c0.3-0.3,0.8-0.5,1.4-0.5c0.6,0,1,0.2,1.3,0.5C140.8,38.3,141,38.8,141,39.4z M138,39.4
	c0,0.5,0.1,0.8,0.3,1.1c0.2,0.2,0.5,0.4,0.9,0.4s0.7-0.1,0.9-0.4c0.2-0.2,0.3-0.6,0.3-1.1s-0.1-0.8-0.3-1.1
	c-0.2-0.2-0.5-0.4-0.9-0.4s-0.7,0.1-0.9,0.4C138.1,38.6,138,39,138,39.4z"/>
<path class="st0" d="M146.2,41.4h-0.8l-1.9-3.1l0,0v0.2c0,0.3,0,0.6,0,0.9v2h-0.6v-3.9h0.8l1.9,3.1l0,0c0,0,0-0.2,0-0.4
	c0-0.3,0-0.5,0-0.6v-2h0.6V41.4z"/>
<path class="st0" d="M151.5,41.4h-0.8l-1.9-3.1l0,0v0.2c0,0.3,0,0.6,0,0.9v2h-0.6v-3.9h0.8l1.9,3.1l0,0c0,0,0-0.2,0-0.4
	c0-0.3,0-0.5,0-0.6v-2h0.6V41.4z"/>
<path class="st0" d="M155.8,41.4h-2.2v-3.9h2.2V38h-1.6v1.1h1.5v0.5h-1.5v1.2h1.6V41.4z"/>
<path class="st0" d="M159.4,38c-0.4,0-0.7,0.1-0.9,0.4c-0.2,0.3-0.3,0.6-0.3,1.1s0.1,0.8,0.3,1.1c0.2,0.2,0.5,0.4,0.9,0.4
	c0.2,0,0.3,0,0.5,0s0.3-0.1,0.5-0.1v0.5c-0.3,0.1-0.7,0.2-1,0.2c-0.6,0-1-0.2-1.3-0.5s-0.5-0.8-0.5-1.5c0-0.4,0.1-0.8,0.2-1.1
	c0.1-0.3,0.4-0.5,0.6-0.7c0.3-0.2,0.6-0.2,1-0.2s0.8,0.1,1.1,0.2l-0.2,0.5c-0.1-0.1-0.3-0.1-0.4-0.2C159.7,38,159.6,38,159.4,38z"/>
<path class="st0" d="M163.6,41.4H163v-3.3h-1.1v-0.5h2.9v0.5h-1.1L163.6,41.4L163.6,41.4z"/>
<path class="st0" d="M168.7,41.4h-2.2v-3.9h2.2V38h-1.6v1.1h1.5v0.5h-1.5v1.2h1.6V41.4z"/>
<path class="st0" d="M173.8,39.4c0,0.6-0.2,1.1-0.5,1.5c-0.4,0.3-0.9,0.5-1.5,0.5h-1.1v-3.9h1.2c0.6,0,1.1,0.2,1.4,0.5
	C173.6,38.3,173.8,38.8,173.8,39.4z M173.1,39.4c0-0.9-0.4-1.4-1.3-1.4h-0.6v2.8h0.5C172.6,40.9,173.1,40.4,173.1,39.4z"/>
<path d="M168.4,26.4"/>
<g>
	<g>
		<path d="M94,32.2l-8.5-22.1h-0.1c0.2,1.8,0.2,3.8,0.2,6.2v15.9H83V7.3h4.4l7.9,20.6h0.1l8-20.6h4.3v24.9h-2.9v-16
			c0-1.8,0.1-3.8,0.2-6h-0.1l-8.5,22.1H94V32.2z"/>
		<path d="M115.2,32.2h-2.8V13.5h2.8V32.2z"/>
		<path d="M132.2,32.2V20.1c0-1.5-0.3-2.7-1-3.4c-0.7-0.8-1.8-1.1-3.3-1.1c-2,0-3.4,0.5-4.3,1.6s-1.4,2.8-1.4,5.2v9.8h-2.8V13.5h2.3
			l0.5,2.6h0.1c0.6-0.9,1.4-1.6,2.4-2.1s2.2-0.8,3.5-0.8c2.3,0,3.9,0.5,5.1,1.6c1.1,1.1,1.7,2.8,1.7,5.2v12.2H132.2z"/>
		<path d="M155.3,22.9c0,3-0.8,5.4-2.3,7.1s-3.7,2.6-6.4,2.6c-1.7,0-3.2-0.4-4.5-1.2s-2.3-1.9-3-3.4s-1.1-3.2-1.1-5.2
			c0-3,0.8-5.4,2.3-7.1s3.6-2.6,6.3-2.6c2.6,0,4.7,0.9,6.2,2.6C154.5,17.5,155.3,19.9,155.3,22.9z M141,22.9c0,2.4,0.5,4.2,1.4,5.5
			c1,1.2,2.4,1.9,4.2,1.9c1.9,0,3.3-0.6,4.2-1.9c1-1.2,1.4-3.1,1.4-5.5s-0.5-4.2-1.4-5.4c-1-1.2-2.4-1.9-4.3-1.9
			c-1.9,0-3.3,0.6-4.2,1.8C141.5,18.6,141,20.5,141,22.9z"/>
		<path d="M163,22.7l-6.5-9.1h3.2l4.9,7.2l4.9-7.2h3.2l-6.5,9.1l6.8,9.6h-3.2l-5.2-7.6l-5.3,7.6h-3.2L163,22.7z"/>
	</g>
</g>
<path d="M8.8,16c0.9-0.9,5.6-4.8,7.6-6.1C19.8,7.7,24,6.4,27.2,9c2.4,2,2.3,4.6,2,6.1c-0.4,2.2-1.1,4.3-1.2,4.5
	c-0.2,0.4-0.4,1.6,0.2,2s1.3-0.1,2.6-1.3c1.3-1.3,3.5-3.1,4.9-3.4c2.2-0.5,3.4,1.2,4,2.3c0.6,1.1,1.5,4,1.6,4.5
	c0.1,0.4,0.4,2.3,0.9,2.4c0.9,0.2,1.2-0.5,2.1-1.6c1-1.2,2.7-3,4.3-3.5c2.7-0.9,3.8,0.2,4.5,0.9c0.8,0.6,1.9,1.8,3.2,5.6
	s2,6.6,3.5,7.4c1.5,0.8,2.8,0.6,4.7-0.6c1.6-0.9,3.1-2.5,4.7-4.3c1-1.1,2.2-2.8,2.8-3.1c0.6-0.2,1.2,0.1,0.9,1.1
	c-0.2,0.5-2.7,5.1-6,8c-2.9,2.5-4.5,3.2-7.5,2.5c-3.2-0.8-4.3-3.6-5.4-5.9c-1.3-2.7-1.8-4.7-2.7-5.5c-0.9-0.9-2.4-1.2-3.4,0.1
	c-1,1.2-3.6,4.8-4.6,5.7c-0.8,0.6-2.7,1.8-5,0.9c-1.7-0.7-3.4-3-3.6-6.9c-0.1-2.4-0.3-3.3-1.9-2c-0.2,0.2-8,7.1-9.4,8.2
	c-1.1,0.9-3.2,1.7-4.5,1s-2.6-2.2-1.2-5.4c1.3-3.2,5.1-9.1,5.5-10.1s1.2-2.6-0.3-3c-1.4-0.4-5,4.2-7.7,6.9c-2.6,2.5-6.3,6.8-7.8,7.9
	c-1.8,1.2-3.7,1.6-6-0.4c-1.6-1.4-2-3.7-0.4-6C2.5,21.8,7.8,16.9,8.8,16z"/>
</svg>
